<svg xmlns="http://www.w3.org/2000/svg" viewBox="0 0 330.26 378.17"><defs><style>.cls-1,.cls-2{fill:#474747;}.cls-1{stroke:#474747;stroke-miterlimit:10;}.cls-2{font-size:42px;font-family:Raleway-ExtraBold, Raleway;font-weight:800;}.cls-3{letter-spacing:0em;}.cls-4{letter-spacing:-0.01em;}.cls-5{letter-spacing:-0.02em;}</style></defs><title>Asset 1</title><g id="Layer_2" data-name="Layer 2"><g id="Layer_1-2" data-name="Layer 1"><path class="cls-1" d="M60.52,65.77Q71.05,34.5,81.58,3.21C82.44.67,84,0,86.7.89q19,6.39,38.07,12.85L164.16,27l8.92-9.41,1.49,1,.88,0h0c.3.61.59,1.21.88,1.82l-.9,1-.09.23.12-.2,1-.9.88,0h0l.57,1.54-7.07,7.16,6.08,2.11q8.61,3,17.21,6A15.42,15.42,0,0,0,196,40.86c1,1.11,2.54,1.76,3.72,2.76a9.08,9.08,0,0,1,1.39,2l0,0-1.24.17C193,43.56,186,41.33,179.14,39c-5.18-1.75-10.32-3.62-15.48-5.44l3-3.3.95-.92,2.8-2.79c.3-.32.61-.63.92-.94l.69-.48-.28-.27-.46.7-.94.92-2.8,2.8-.91.95-3.26,3.25c-.82-.22-1.65-.39-2.45-.66q-25.56-8.58-51.1-17.19L87,8,69.58,59.14c-1.12-.67-1.67-.24-1.81,1h0l-.93.93h0l-3.27,2.8h0l-.48.53c0,.11,0,.21,0,.31l-.47.57h0Zm114-43-.2.19.22-.17.17-.21Z"/><path class="cls-1" d="M286,68.12Q300.73,73,315.5,78c3.46,1.16,6.9,2.36,10.34,3.55,3.14,1.09,3.72,2.37,2.59,5.73-2.24,6.69-4.51,13.37-6.76,20q-11.78,34.92-23.56,69.83c-.26.8-.64,1.55-1,2.33l-.95.93h0l-.47.47h0l-1.41,1.5c0,.11,0,.21,0,.32l-.48.52h0l-3.27,2.8h0l-.94.94h0l-.47.47h0l-1,.94h-.49a5.45,5.45,0,0,1,.11-1.41q13.68-40.67,27.39-81.31c2.08-6.15,4.15-12.31,6.28-18.64-7.35-2.47-14.54-4.87-21.71-7.31q-12.09-4.11-24.15-8.29L271.49,68v-.46c2.3-.34,4.62-1.1,6.87-.91s5.23.52,5.57,4c0,0,.27.08.73.21C285.06,70,285.5,69,286,68.12Z"/><path class="cls-1" d="M54.27,264.93c-7.28-2.39-14.57-4.75-21.84-7.18Q18,252.94,3.57,248c-3-1-3.63-2.37-2.64-5.32Q12.45,208.45,24,174.19a6.27,6.27,0,0,1,.41-.82c.22-.07.49-.08.64-.22,1.9-1.71,3.76-3.45,5.68-5.14.15-.13.65.13,1,.22-1.08-2.58,1.81-2.7,2.5-4.18a7,7,0,0,1-.18.91L11.82,231C10.54,234.8,9.27,238.6,8,242.53l13.39,4.53,34.31,11.62Z"/><path class="cls-1" d="M34.26,164.05c-.69,1.48-3.58,1.6-2.5,4.18-.39-.09-.89-.35-1-.22-1.92,1.69-3.78,3.43-5.68,5.14-.15.14-.42.15-.64.22,4.47-13.38,8.91-26.77,13.41-40.14q10.67-31.74,21.38-63.47c.24-.74.53-1.46.79-2.19l2.66-2.35h0l.47-.57c0-.1,0-.2,0-.31l.48-.53h0L66.84,61h0l.93-.93h0l1.46.1a6.88,6.88,0,0,1-.2.9Q57.29,96,45.54,130.87C41.81,141.94,38,153,34.26,164.05Z"/><path class="cls-1" d="M287.75,188.31h.49l1-.94h0l.47-.47h0l.94-.94h0l3.27-2.8h0l.48-.52c0-.11,0-.21,0-.32l1.41-1.5h0l.47-.47h0l.74,0q-7.12,21.26-14.24,42.51-11.43,34-22.88,68c-.2.58-.49,1.12-.74,1.68l-1.66-2.1c-.73.65-2.12.9-1.25,2.45.12.21-.75,1.32-.86,1.27-2.62-1-2.48,1.44-3.41,2.55a5.23,5.23,0,0,1-1.25.83q1.57-4.53,3.16-9.07l2,1.15.45-.67-2.14-1.47c.58-1.74,1.15-3.47,1.72-5.21,2.24,1.24,1.18,3.26.79,5.19,4.2-1.6,4.24-5.71,6.07-8.36l-5.26-1.39a8.51,8.51,0,0,1,.22-1.14q12.66-37.53,25.33-75C284.46,197.13,286.15,192.73,287.75,188.31Z"/><path class="cls-1" d="M201.11,45.63a9.08,9.08,0,0,0-1.39-2c-1.18-1-2.69-1.65-3.72-2.76a15.42,15.42,0,0,1-1.89-3.55L215,44c1.53-13.65-9-25.78-22.31-26.27-5.24-.2-9.92,1.39-14.41,3.86l-1-1.1h0l1-1.86.46-.46.69-.46-.28-.27-.45.7c-.15.15-.3.31-.46.46l-2.78,0h0l-.92-.93h0l-.47-.47a1.75,1.75,0,0,0-.33-.28l9.19-4.39c.73,1.8,2,3,4,2.68s2.67-2,2.55-4a30,30,0,0,1,32.29,29.36c0,2,.17,4,.26,6l-4.61,4.65h0l-2.08.93c-.57-.51-1.06-1.23-1.73-1.48-4.56-1.68-9.16-3.26-13.75-4.87l1.24-.17.48.33.12-.17Z"/><path class="cls-1" d="M328.88,219.52c.08.16.15.32.22.48,0,.85-.12,1.7-.12,2.55q0,39,0,77.91c0,.85.06,1.7.09,2.55l-.23,0c-2.24-.72-4.39-1.14-5.42,2.25-.5-1-.77-1.57-1-2.1l-2,.81-.4-.05,0,0-1-1,0,0-1.92-3.34,5.35-.73.75.34.18.09-.18-.1-.76-.35v-4.28l1-.61-1-.38c0-6.29-.1-12.57-.1-18.86q0-18.75.06-37.49l3.25,2c-1.82-3.41-1.82-3.41-3.21-3.42q0-4.86-.05-9.74l.42-.15-.42-.35.05-.89,2.6-2.11Z"/><path class="cls-1" d="M291.64,45.48q9.44-.07,18.86-.15,7.23,0,14.44,0c2.85,0,4,1.12,4,3.91,0,3.57,0,7.15,0,10.72,0,2.31-1.35,3.76-3.25,3.75s-3.24-1.43-3.31-3.75c-.08-2.62,0-5.24,0-8h-7.43c-12.81,0-25.62,0-38.42-.08a5.68,5.68,0,0,1-3.69-1.75A3.24,3.24,0,0,1,273,47a4.92,4.92,0,0,1,3.32-1.55c4.73-.15,9.47,0,14.21,0l.09,1.2-.47.47-.74.46.27.27.45-.75c.15-.16.31-.32.47-.47Zm-4.78,4.8c.47-.46.94-.92,1.4-1.39a.85.85,0,0,0,.17-.06s0-.08,0-.12l-.18.21-1.4,1.39-1,.62.32.31Z"/><path class="cls-1" d="M215.33,52.17l2.08-.93.46.73.3-.27-.75-.47L222,46.58l31.9,10.64c2,.67,3.94,1.38,5.91,2.07l1.9.7.43.15a18.73,18.73,0,0,0,3.3,2c2.07.74,4.24,1.21,7,2-2.78,1.37-3.52,4.49-6.59,4L223.39,53.81l-.14-.71-.24.52c-.41.33-1,.59-1.19,1a8.37,8.37,0,0,0-.15,2.2l-1,.93-3.73.93-1.53-.47Zm5.47.65-.18-.07s-.06.14-.05.15a.48.48,0,0,0,.18.07Z"/><path class="cls-1" d="M250.65,297.6a5.23,5.23,0,0,0,1.25-.83c.93-1.11.79-3.59,3.41-2.55.11,0,1-1.06.86-1.27-.87-1.55.52-1.8,1.25-2.45l1.66,2.1c-.22.66-.44,1.32-.65,2l-1.2.79.74.61-.11.47c-.12.3-.24.61-.37.92-.12.6-.24,1.2-.46,2.26h59.76l-2.42,2.89,0,0-.94.48,0,0-.47.94,0,0-.5.5,0,0-1.39.59c-.41-.22-.83-.64-1.22-.61-1.29.08-2.58.48-3.86.48q-23,.06-46.09,0a17.29,17.29,0,0,1-3.86-1l.47,1.49-.92.63-1,.28a12.34,12.34,0,0,1-1.5-.75c-1.35-1-2.66-2-4-2.95.33-1.09.65-2.18,1-3.27l.52-1.57Z"/><path class="cls-1" d="M322.44,221.37q0-26.9,0-53.8a15.09,15.09,0,0,1,1.95,1c1.51,1.08,3,2.24,4.44,3.38.05,9.51.11,19,.12,28.52,0,5.88-.07,11.75-.12,17.63a21.63,21.63,0,0,0-2.25,1.27C325.33,220.32,324.38,221.86,322.44,221.37Z"/><path class="cls-1" d="M224.38,322.18c-5-1.61-10-3.16-15-4.83-7.82-2.63-15.62-5.34-23.43-8-.1-.41-.19-.82-.28-1.23h0l-.94-.47h0l-.93-.94h0l-.94-.48v0l-.48-.48h0l-2.81-3.27h0l-.83-1.14,0,0,0-1.18,44.6,15,3.12,1.19.16,0c.87,2,.15,3.39-1.47,4.58A5,5,0,0,0,224.38,322.18Z"/><path class="cls-1" d="M224.38,322.18a5,5,0,0,1,.91-1.24c1.62-1.19,2.34-2.61,1.47-4.58l15.75,5.08c.53-1.54,1-2.92,1.49-4.3q2.58-7.31,5.15-14.63c1.33,1,2.64,2,4,2.95a12.34,12.34,0,0,0,1.5.75c-2.07,6.18-4.16,12.35-6.2,18.54-1.49,4.51-2.29,5-6.74,3.46C235.91,326.23,230.15,324.19,224.38,322.18Z"/><path class="cls-1" d="M68.34,303q0-10.09,0-20.18v-.27l6.48-1q0,8.83,0,17.67c.39.27.76.74,1.18.78,1.6.14,3.22.18,4.84.18,7.12,0,14.25,0,21.38,0,2,0,2.52.88,1.54,2.61a19.5,19.5,0,0,1-2,2.49,33.63,33.63,0,0,0-3.35-.39q-13.68-.25-27.37-.41c-.5,0-1,.5-1.49.77l-.64-.52C68.72,304.13,68.53,303.54,68.34,303Z"/><path class="cls-1" d="M69.56,305.23c.49-.27,1-.78,1.49-.77q13.68.14,27.37.41a33.63,33.63,0,0,1,3.35.39,19.5,19.5,0,0,0,2-2.49c1-1.73.43-2.61-1.54-2.61-7.13,0-14.26,0-21.38,0-1.62,0-3.24,0-4.84-.18-.42,0-.79-.51-1.18-.78a19.59,19.59,0,0,0,2.28.24q38,0,76,0a5.83,5.83,0,0,0,1.76-.6l1.21.45-.12.87H111.76c-.8,0-1.59.12-2.39.18l-.22.59c1.59,1.31,1.9,4,4.75,3.94a12.72,12.72,0,0,0,2.42.45q24.65,0,49.28,0a12.9,12.9,0,0,0,2.42-.46,2.44,2.44,0,0,1,.85-.31,6.21,6.21,0,0,0,6.25-5.61l3.76,1.29,0,1.18v0a2.26,2.26,0,0,1-.16.26l-1.37,0c-.14-.24-.33-.71-.4-.69-1.88.52-3.63,3.24-3.3,5.07-1.69,0-3.38.15-5.08.15q-26.49,0-53,0a23.88,23.88,0,0,1-2.52-.25L112,306c-4,0-8,.14-12,.15-9.06,0-18.12,0-27.17,0A12.5,12.5,0,0,1,69.56,305.23Z"/><path class="cls-1" d="M329.18,153.85a.21.21,0,0,0,0,.35c-.1.49-.2,1-.29,1.47l-6.45-1c0-5.58-.12-11.15-.09-16.72,0-2.32,1.31-3.67,3.28-3.72,2.14-.05,3.36,1.25,3.41,3.78.09,4.65.12,9.29.18,13.93C329.21,152.55,329.19,153.2,329.18,153.85Zm-2.33-2.26-2.79-3a23.35,23.35,0,0,0,.3,3.61c.08.29,1.18.65,1.57.47S326.75,151.73,326.85,151.59Z"/><path class="cls-1" d="M322.44,154.62l6.45,1v14.92c-.89-.65-1.82-1.26-2.67-2-1.27-1-2.48-2.15-3.72-3.22Z"/><path class="cls-1" d="M329.07,303c0-.85-.09-1.7-.09-2.55q0-39,0-77.91c0-.85.08-1.7.12-2.55a7.34,7.34,0,0,1,.64,2q0,39.48,0,79A6.91,6.91,0,0,1,329.07,303Z"/><path class="cls-1" d="M68.34,272.16l-.18-2.2-1.89-.9,2.43-5.8,8.84,2.92.52,6.76-3.23-.68h0a7.73,7.73,0,0,0-.16-2.74c-.33-.77-1.23-1.3-1.88-1.94-.58.77-1.75,1.66-1.63,2.28C71.75,272.73,70,272.28,68.34,272.16Z"/><path class="cls-1" d="M328.89,170.59V155.67c.09-.49.19-1,.29-1.47a10.56,10.56,0,0,1,.56,2.35q0,30.09,0,60.17a8.94,8.94,0,0,1-.62,2.3c-.09-.3-.18-.6-.28-.89.05-5.88.13-11.75.12-17.63,0-9.51-.07-19-.12-28.52C328.86,171.51,328.87,171.05,328.89,170.59Z"/><path class="cls-1" d="M265.88,68.08c3.07.51,3.81-2.61,6.59-4-2.76-.75-4.93-1.22-7-2a18.73,18.73,0,0,1-3.3-2l23.78,8c-.45.92-.89,1.84-1.29,2.68-.46-.13-.73-.16-.73-.21-.34-3.43-3.2-3.76-5.57-4s-4.57.57-6.87.91l-1.21.32.11.43,1.1-.29,4.18,3.34Zm7.27-2-.37-.16c0,.12-.17.27-.14.36s.23.11.35.17C273,66.27,273.1,66.15,273.15,66Z"/><path class="cls-1" d="M255.66,305.93l.92-.63,54.23-.06-.27.7c-9.69,0-19.38.1-29.07.1C272.87,306,264.26,306,255.66,305.93Z"/><path class="cls-1" d="M320.36,303.94l2-.81c.25.53.52,1.08,1,2.1,1-3.39,3.18-3,5.42-2.25a2.65,2.65,0,0,1-2.75,2.91l-.94-1.41-.37.25.32,1.25-13,.09c.14-.57.28-1.14.41-1.72l0,0,.5-.5,0,0,.47-.94,0,0,.94-.48,0,0,.48,0c.81,1.52,1.68,2.43,2.88.31l1.33.17,0,0,1,1,0,0Zm-3,1,.37.16c.06-.12.18-.27.15-.36a.37.37,0,0,0-.35-.15C317.45,304.64,317.43,304.84,317.37,305Z"/><path class="cls-1" d="M177.31,301.59l1.37,0,1,.9h0l2.81,3.27h0l.48.48v0l.94.48h0l.93.94h0l.94.47h0l.14,1.2c-2.66-.86-5.32-1.73-8-2.56-1.08-.33-2.2-.55-3.31-.82v-.63l1.33-.41-.35-1.88Z"/><path class="cls-1" d="M54.27,264.93l1.38-6.25,4.66,1.79-1.64,5.86Z"/><path class="cls-1" d="M68.7,263.26l-2.43,5.8-3.64-1.24c.7-2,1.39-4,2.09-6.07Z"/><path class="cls-1" d="M68.34,272.16c1.64.12,3.41.57,2.81-2.3-.12-.62,1-1.51,1.63-2.28.65.64,1.55,1.17,1.88,1.94a7.73,7.73,0,0,1,.16,2.74c-2,1.29-3.68,3.29-6.47,2.33C68.35,273.78,68.35,273,68.34,272.16Z"/><path class="cls-1" d="M64.72,261.75c-.7,2-1.39,4.05-2.09,6.07l-4-1.49c.55-1.95,1.09-3.9,1.64-5.86Z"/><path class="cls-1" d="M74.79,281.51l-6.48,1c0-1.43,0-2.86,0-4.29l6.31-.94Z"/><path class="cls-1" d="M74.64,277.28l-6.31.94c0-1.21,0-2.42,0-3.63,2.79,1,4.5-1,6.47-2.33h0C74.77,273.94,74.71,275.61,74.64,277.28Z"/><path class="cls-1" d="M328.84,218.13c.1.29.19.59.28.89l-.24.5-3.8,3-2.6,2.11,0-3.31c1.94.49,2.89-1.05,4.15-2A21.63,21.63,0,0,1,328.84,218.13Z"/><path class="cls-1" d="M189.48,11.21c.12,2-.48,3.63-2.55,4s-3.28-.88-4-2.68l1.38-.48,2.14,1.82L188,11.5Z"/><path class="cls-1" d="M328.89,170.59c0,.46,0,.92-.05,1.39-1.47-1.14-2.93-2.3-4.44-3.38a15.09,15.09,0,0,0-1.95-1c0-.71,0-1.43.05-2.15,1.24,1.07,2.45,2.18,3.72,3.22C327.07,169.33,328,169.94,328.89,170.59Z"/><path class="cls-1" d="M174.54,305.29v.63l-.93.05c-.33-1.83,1.42-4.55,3.3-5.07.07,0,.26.45.4.69L175.52,303l.35,1.88Z"/><path class="cls-1" d="M188,11.5l-1.59,2.37-2.14-1.82Z"/><path class="cls-1" d="M314.85,302.5l-.48,0,2.42-2.89a.23.23,0,0,1,.35,0l1.92,3.34-1.33-.17C316.91,301.38,316,301.32,314.85,302.5Z"/><path class="cls-1" d="M322.48,235.81c1.39,0,1.39,0,3.21,3.42l-3.25-2Z"/><path class="cls-1" d="M62.64,65.22,60,67.57l.54-1.8Z"/><path class="cls-1" d="M312.53,304.35c-.13.58-.27,1.15-.41,1.72l-1.58-.13.27-.7a.69.69,0,0,1,.33-.3Z"/><path class="cls-1" d="M261.74,60l-1.9-.7Z"/><path class="cls-1" d="M258,296l-.74-.61,1.2-.79C258.27,295.05,258.12,295.51,258,296Z"/><path class="cls-1" d="M325.1,306l-.32-1.25.37-.25.94,1.41Z"/><path class="cls-1" d="M174.57,18.57l-1.49-1,.65-.63a1.75,1.75,0,0,1,.33.28l.47.47h0Z"/><path class="cls-1" d="M290.62,46.58l-.09-1.2,1.11.1-1,1.08Z"/><path class="cls-1" d="M322.48,293.62l1,.38-1,.61Z"/><path class="cls-1" d="M68.34,303c.19.58.38,1.17.58,1.75C68.72,304.13,68.53,303.54,68.34,303Z"/><path class="cls-1" d="M257.49,297.37c.13-.31.25-.62.37-.92C257.74,296.75,257.62,297.06,257.49,297.37Z"/><path class="cls-1" d="M329.18,153.85c0-.65,0-1.3,0-2C329.21,152.55,329.19,153.2,329.18,153.85Z"/><path class="cls-1" d="M296.94,180.39l-.74,0,.95-.93Z"/><path class="cls-1" d="M68.31,282.66v.12l-1-.32v.45Z"/><path class="cls-1" d="M112,306l1.08-.11Z"/><path class="cls-1" d="M322.43,225.57l.42.35-.42.15Z"/><path class="cls-1" d="M185.85,309.3l-.14-1.2c.09.41.18.82.28,1.23Z"/><path class="cls-1" d="M322.48,298.89l.76.35h0l-.75-.34Z"/><path class="cls-1" d="M163.66,33.57l-.18,0-.15-.11,3.26-3.25,0,0Z"/><path class="cls-1" d="M66.84,61l-3.27,2.8Z"/><path class="cls-1" d="M170.37,26.56l-2.8,2.79-.07-.06,2.8-2.8Z"/><path class="cls-1" d="M178.28,18.61l-1,1.86-.88,0-.1-.09c-.29-.61-.58-1.21-.88-1.82l2.78,0Z"/><path class="cls-1" d="M69.58,59.14l-.35,1-1.46-.1C67.91,58.9,68.46,58.47,69.58,59.14Z"/><path class="cls-1" d="M178.3,21.57l-.41.44-.57-1.54Z"/><path class="cls-1" d="M67.77,60.09l-.93.93Z"/><path class="cls-1" d="M167.57,29.35l-.95.92,0,0,.91-.95Z"/><path class="cls-1" d="M171.29,25.62c-.31.31-.62.62-.92.94l-.07-.07.94-.92Z"/><path class="cls-1" d="M171.24,25.57l.46-.7.28.27-.69.48Z"/><path class="cls-1" d="M176.44,20.51l-1,.9,0,0,.9-1Z"/><path class="cls-1" d="M174.57,18.57l0-.9.92.93Z"/><path class="cls-1" d="M174.54,22.8l-.22.17.2-.19Z"/><path class="cls-1" d="M63.11,64.65l-.47.57Z"/><path class="cls-1" d="M63.58,63.81l-.48.53Z"/><path class="cls-1" d="M174.52,22.78l.19-.19-.17.21Z"/><path class="cls-1" d="M175.47,21.41l-.12.2.09-.23Z"/><path class="cls-1" d="M293.88,183.16l-3.27,2.8Z"/><path class="cls-1" d="M295.74,180.83l-1.41,1.5Z"/><path class="cls-1" d="M271.49,68l-1.1.29-.11-.43,1.21-.32Z"/><path class="cls-1" d="M289.21,187.36l-1,.94Z"/><path class="cls-1" d="M290.61,186l-.94.94Z"/><path class="cls-1" d="M289.68,186.89l-.47.47Z"/><path class="cls-1" d="M294.35,182.65l-.48.52Z"/><path class="cls-1" d="M296.21,180.36l-.47.47Z"/><path class="cls-1" d="M255.8,282.33l.81-2.2L258,280l-1.05-.83.45-1.39,5.26,1.39c-1.83,2.65-1.87,6.76-6.07,8.36C257,285.59,258,283.57,255.8,282.33Z"/><path class="cls-1" d="M253.81,288.53l.27-1,2.14,1.47-.45.67Z"/><path class="cls-1" d="M178.7,18.12l.45-.7.28.27-.69.46Z"/><path class="cls-1" d="M201.11,45.63l.58.18-.12.17-.48-.33Z"/><path class="cls-1" d="M178.24,18.58c.16-.15.31-.31.46-.46l0,0-.46.46Z"/><path class="cls-1" d="M174.53,17.67l-.47-.47Z"/><path class="cls-1" d="M320,303.92l-1-1Z"/><path class="cls-1" d="M320.36,303.94l-.4-.05Z"/><path class="cls-1" d="M323.24,299.24l.18.1-.18-.09Z"/><path class="cls-1" d="M288.26,48.89l-1.4,1.39,0,0,1.4-1.39Z"/><path class="cls-1" d="M286.86,50.28l-.68,1-.32-.31,1-.62Z"/><path class="cls-1" d="M290.13,47l-.45.75-.27-.27.74-.46Z"/><path class="cls-1" d="M290.15,47.05l.47-.47,0,0c-.16.15-.32.31-.47.47Z"/><path class="cls-1" d="M288.29,48.92l.18-.21s0,.1,0,.12a.85.85,0,0,1-.17.06Z"/><path class="cls-1" d="M221.63,63.82c0,.46,0,.93,0,1.4l-2.56-1.79c-.42,1.06-1.11,2-1.12,3-.08,10.72-.05,21.43,0,32.15a14.18,14.18,0,0,0,.22,1.81l.71-.06V97.88q0-14,0-27.95c0-1.91.15-3.72,2.85-3.31q0,19.3-.08,38.61c-.48-.53-1-1.07-1.42-1.6v.76a9.65,9.65,0,0,1-3.28.51c-.63-.12-1-1.3-1.57-2l0-1.7a10.64,10.64,0,0,0,.64-2.54c0-10.78,0-21.56.07-32.34a20.43,20.43,0,0,1,.85-4l-1.54-2.73c0-.47,0-.94,0-1.41l1.53.47,4.2,4.2Z"/><path class="cls-1" d="M221.15,62.89l-4.2-4.2,3.73-.93a19.51,19.51,0,0,0,0,2.65c0,.24.6.4.93.6v1.41Z"/><path class="cls-1" d="M221.66,61c-.33-.2-.9-.36-.93-.6a19.51,19.51,0,0,1,0-2.65l1-.93C221.66,58.22,221.66,59.62,221.66,61Z"/><path class="cls-1" d="M217.42,51.23l.75.47-.3.27-.46-.73Z"/><path class="cls-1" d="M223.39,53.81a.41.41,0,0,1-.38-.19l.24-.52Z"/><path class="cls-1" d="M220.8,52.82l-.05.15a.48.48,0,0,1-.18-.07s0-.1.05-.15Z"/><path class="cls-1" d="M311.14,304.94a.69.69,0,0,0-.33.3l-54.23.06-.47-1.49a17.29,17.29,0,0,0,3.86,1q23,.09,46.09,0c1.28,0,2.57-.4,3.86-.48C310.31,304.3,310.73,304.72,311.14,304.94Z"/><path class="cls-1" d="M250.13,299.24c.17-.52.35-1,.52-1.57C250.48,298.2,250.3,298.72,250.13,299.24Z"/><path class="cls-1" d="M314.4,302.49l-.94.48Z"/><path class="cls-1" d="M313.44,303l-.47.94Z"/><path class="cls-1" d="M313,303.89l-.5.5Z"/><path class="cls-1" d="M182.46,305.78l-2.81-3.27Z"/><path class="cls-1" d="M223.48,315.2l3.12,1.19Z"/><path class="cls-1" d="M179.65,302.51l-1-.9a2.26,2.26,0,0,0,.16-.26l0,0Z"/><path class="cls-1" d="M184.78,307.64l-.93-.94Z"/><path class="cls-1" d="M185.72,308.11l-.94-.47Z"/><path class="cls-1" d="M183.85,306.71l-.94-.48Z"/><path class="cls-1" d="M182.92,306.25l-.48-.48Z"/><polygon class="cls-1" points="178.82 301.37 178.84 301.35 178.85 301.4 178.82 301.37"/><path class="cls-1" d="M153.52,298.41l-24.39-8.1c-2.41-.81-4.81-1.68-7.21-2.52l3.68-5.4c4,1.26,8,2.47,11.91,3.8q18.81,6.33,37.61,12.74a6.21,6.21,0,0,1-6.25,5.61,2.44,2.44,0,0,0-.85.31H113.9c-2.85,0-3.16-2.63-4.75-3.94l.22-.59c.8-.06,1.59-.17,2.39-.18H156l.12-.87-1.21-.45h-.2l-.17-.08Z"/><path class="cls-1" d="M113.9,304.86H168a12.9,12.9,0,0,1-2.42.46q-24.65,0-49.28,0A12.72,12.72,0,0,1,113.9,304.86Z"/><path class="cls-1" d="M326.85,151.59c-.1.14-.39.88-.92,1.13s-1.49-.18-1.57-.47a23.35,23.35,0,0,1-.3-3.61Z"/><path class="cls-1" d="M81.61,274.2l-3.55-1.26c-.17-2.25-.35-4.51-.52-6.76l5.27,1.62Z"/><path class="cls-1" d="M273.15,66c0,.12-.11.24-.16.37-.12-.06-.31-.08-.35-.17s.09-.24.14-.36Z"/><path class="cls-1" d="M314.85,302.5c1.1-1.18,2.06-1.12,2.88.31C316.53,304.93,315.66,304,314.85,302.5Z"/><path class="cls-1" d="M317.37,305c.06-.12.08-.32.17-.35a.37.37,0,0,1,.35.15c0,.09-.09.24-.15.36Z"/><path class="cls-1" d="M174.54,305.29l1.33-.41Z"/><path class="cls-1" d="M197.12,209.74c.1,2.55-2.14,4.08-4.86,3.21-4.87-1.58-9.71-3.25-14.56-4.88L112,185.93c-.74-.25-1.49-.46-2.2-.77a3.13,3.13,0,0,1-2-4.15,2.9,2.9,0,0,1,3.84-2.07c1.73.4,3.41,1,5.1,1.61l76.49,25.76C195,206.9,196.93,207.36,197.12,209.74Z"/><path class="cls-1" d="M161.55,75.94c0-1.16-.1-2.32-.08-3.48.05-2.18,1.26-3.51,3.15-3.56S168,70.19,168,72.48c0,8.76.12,17.52,0,26.28-.13,7.08.76,13.77,5.56,19.38C179,124.5,186,127,194.19,126.63l.93,6.28c-10.92,2-23.6-4.26-29.61-14.73a27.42,27.42,0,0,1-3.94-15.3c1.42.25,2.25-.17,2.24-1.78,0-7.9,0-15.8,0-23.7C163.82,75.6,162.58,76,161.55,75.94Zm.92,30.74,1.46-.14-.7-.68Z"/><path class="cls-1" d="M166.62,166.79,133,155.56c-3.59-1.2-7.19-2.4-10.78-3.65a3.14,3.14,0,0,1-2.13-4.08,3.22,3.22,0,0,1,4.27-2.12q24.42,8.22,48.82,16.51l-2.54,3.66c-.41.59-.8,1.2-1.19,1.8l-1.86-.55Z"/><path class="cls-1" d="M183.38,69.4l2.46-.36c0,.15,0,.29,0,.44l.33-.25c1.77.67,2,2.1,2,3.77,0,9.62,0,19.23,0,28.84,0,3.12.66,4,3.67,4.58,1.93.39,3.07,1.51,3,3.5s-1.54,3-3.68,3a9.68,9.68,0,0,1-9.59-9.44c-.13-10.39-.06-20.78,0-31.17a6.64,6.64,0,0,1,.76-2.08c.18,4-.34,8.11.75,12.24,3.29-2,4.23-4.66,4-8.07-.15-2.41-.28-4.39-3.39-4.3C183.66,70.14,183.52,69.65,183.38,69.4Z"/><path class="cls-1" d="M125.6,282.39l-3.68,5.4L86.43,275.92l1.38-6.31c7.12,2.34,14.27,4.64,21.38,7C114.68,278.5,120.13,280.47,125.6,282.39Z"/><path class="cls-1" d="M182.46,165.41c8.24,2.73,16.5,5.43,24.72,8.22a3.08,3.08,0,0,1,2.06,4.08,3,3,0,0,1-4.07,2.12c-4.66-1.47-9.24-3.16-13.85-4.77-.13-.43-.13-1-.42-1.27C188.12,171,185.28,168.19,182.46,165.41Z"/><path class="cls-1" d="M182.46,165.41c2.82,2.78,5.66,5.56,8.44,8.38.29.28.29.84.42,1.27l-21.92-7.38c.39-.6.78-1.21,1.19-1.8l2.54-3.66Z"/><path class="cls-1" d="M206.72,129l-3.12,1.59-.42-6.73,6.76-6,7.06,1.45-3.26,4.22c-1.08-.25-2.26-.92-3.21-.68C207.6,123.61,206.68,125.31,206.72,129Z"/><path class="cls-1" d="M161.55,75.94c1,.06,2.27-.34,2.27,1.46,0,7.9,0,15.8,0,23.7,0,1.61-.82,2-2.24,1.78Q161.56,89.41,161.55,75.94Z"/><path class="cls-1" d="M183.38,69.4c.14.25.28.74.41.73,3.11-.09,3.24,1.89,3.39,4.3.22,3.41-.72,6-4,8.07-1.09-4.13-.57-8.22-.75-12.24Z"/><path class="cls-1" d="M215.32,102.9c.52.7.94,1.88,1.57,2a9.65,9.65,0,0,0,3.28-.51v-.76c.47.53.94,1.07,1.42,1.6l-1.35,7.09-6.1-1.88Z"/><path class="cls-1" d="M221.67,66.62c-2.7-.41-2.85,1.4-2.85,3.31q0,14,0,27.95v2.42l-.71.06a14.18,14.18,0,0,1-.22-1.81c0-10.72,0-21.43,0-32.15,0-1,.7-1.91,1.12-3l2.56,1.79Z"/><path class="cls-1" d="M215.37,59.63l1.54,2.73a20.43,20.43,0,0,0-.85,4C216,77.1,216,87.88,216,98.66a10.64,10.64,0,0,1-.64,2.54Q215.35,80.42,215.37,59.63Z"/><path class="cls-1" d="M195.12,132.91l-.93-6.28,5.07-1.23.9,6.43Z"/><path class="cls-1" d="M214.14,110.44l6.1,1.88c-.6,1.4-1.2,2.79-1.79,4.19L212.16,115Z"/><path class="cls-1" d="M200.16,131.83l-.9-6.43,3.92-1.51.42,6.73Z"/><path class="cls-1" d="M206.72,129c0-3.72.88-5.42,3.81-6.16.95-.24,2.13.43,3.21.68Z"/><path class="cls-1" d="M212.16,115l6.29,1.55c-.49.94-1,1.88-1.45,2.82l-7.06-1.45Z"/><path class="cls-1" d="M87.81,269.61l-1.38,6.31-2.86-1L85,268.54Z"/><path class="cls-1" d="M85,268.54l-1.42,6.36-2-.7,1.2-6.4Z"/><path class="cls-1" d="M257,279.16,258,280l-1.39.14Z"/><path class="cls-1" d="M166.62,166.79l.92.34Z"/><path class="cls-1" d="M221.15,62.89l.51-.47,0,1.4Z"/><path class="cls-1" d="M186.22,69.23l-.33.25c0-.15,0-.29,0-.44A.33.33,0,0,1,186.22,69.23Z"/><path class="cls-1" d="M153.52,298.41l1,.34Z"/><path class="cls-1" d="M162.47,106.68l.76-.82.7.68Z"/><text class="cls-2" transform="translate(77.45 368.81)"><tspan class="cls-3">S</tspan><tspan x="25.66" y="0">ummari</tspan><tspan class="cls-4" x="183.29" y="0">z</tspan><tspan x="203.7" y="0">e</tspan><tspan class="cls-5" x="229.07" y="0">r</tspan></text></g></g></svg>